<svg id="Capa_1" enable-background="new 0 0 512 512" height="512" viewBox="0 0 512 512" width="512" xmlns="http://www.w3.org/2000/svg"><g><path d="m512 112.5v-49c0-16.542-13.458-30-30-30h-452c-16.542 0-30 13.458-30 30v49z"/><path d="m223 227.527v77.973l55.039-41.279z"/><path d="m0 142.5v306c0 16.542 13.458 30 30 30h452c16.542 0 30-13.458 30-30v-306zm193 57c0-11.952 13.358-19.125 23.32-12.48l96 64c8.593 5.728 8.963 18.268.68 24.48l-96 72c-9.872 7.406-24 .338-24-12zm239 215h-352c-8.284 0-15-6.716-15-15s6.716-15 15-15h273v-17c0-8.284 6.716-15 15-15s15 6.716 15 15v17h49c8.284 0 15 6.716 15 15s-6.716 15-15 15z"/></g></svg>